<svg width="4650" height="4650" viewBox="0 0 4650 4650" fill="none" xmlns="http://www.w3.org/2000/svg">
<rect width="4650" height="4650" rx="2325" fill="#030712"/>
<path d="M1740.15 1655.16C1888.68 1562.23 2031.66 1476.45 2057.87 1463.74C2084.08 1451.83 2117.44 1441.5 2130.94 1441.5C2145.24 1441.5 2157.95 1446.27 2159.54 1451.83C2161.13 1456.59 2159.54 1484.39 2155.57 1512.99C2152.39 1541.58 2131.74 1637.69 2109.5 1727.44C2088.05 1817.2 2068.19 1906.16 2065.02 1926.02C2060.25 1961.76 2060.25 1961.76 2075.34 1945.87C2084.08 1937.14 2123 1895.04 2161.92 1852.15C2200.84 1809.26 2265.97 1744.92 2306.48 1709.18C2347.78 1673.43 2410.53 1623.39 2445.48 1597.97C2481.22 1571.76 2546.35 1533.64 2590.04 1512.19C2633.73 1490.75 2698.06 1466.12 2733.01 1457.39C2767.96 1448.65 2817.21 1441.5 2841.83 1441.5C2867.25 1441.5 2896.64 1445.47 2907.76 1449.44C2918.88 1454.21 2933.17 1465.33 2939.53 1475.65C2946.68 1485.98 2952.24 1511.4 2952.24 1536.81C2952.24 1560.64 2930.79 1690.91 2903.78 1826.73C2877.57 1962.55 2843.42 2146.03 2828.33 2235.79C2813.24 2325.54 2794.97 2444.69 2787.82 2501.87C2779.88 2559.06 2773.52 2659.14 2773.52 2724.28C2773.52 2793.38 2776.7 2860.1 2783.05 2883.13C2787.82 2905.37 2799.73 2932.38 2808.47 2945.09C2818.8 2959.38 2831.5 2966.53 2845.8 2966.53C2858.51 2966.53 2879.16 2960.18 2891.87 2951.44C2904.58 2943.5 2984.01 2872.01 3066.61 2793.38C3149.22 2714.74 3220.71 2652 3224.68 2655.17C3228.65 2658.35 3229.44 2685.36 3220.71 2771.93L3163.52 2830.71C3131.75 2862.48 3065.03 2926.82 3014.98 2972.89C2964.94 3018.96 2895.05 3077.73 2860.1 3103.95C2825.15 3130.16 2775.11 3161.93 2748.9 3173.84C2722.69 3186.55 2689.33 3196.88 2675.03 3196.88C2661.53 3196.88 2637.7 3191.32 2623.4 3183.37C2609.9 3176.23 2593.22 3165.11 2587.66 3157.96C2582.1 3150.81 2570.98 3131.75 2562.24 3115.86C2553.5 3099.18 2541.59 3061.85 2535.23 3032.46C2528.88 3002.28 2521.73 2939.53 2518.55 2891.08C2516.17 2842.62 2517.76 2740.96 2522.53 2664.7C2527.29 2588.45 2536.03 2481.22 2542.38 2426.42C2548.74 2371.61 2558.27 2301.71 2563.03 2271.53C2567.8 2241.35 2582.1 2157.95 2594.81 2087.26C2607.52 2015.77 2625.78 1929.99 2634.52 1896.63C2644.05 1862.47 2655.97 1807.67 2661.53 1775.1C2669.47 1729.83 2669.47 1709.97 2662.32 1692.5C2654.38 1672.64 2650.41 1671.05 2629.76 1675.02C2617.05 1678.2 2570.18 1697.26 2526.5 1718.71C2482.81 1740.15 2412.91 1779.87 2371.61 1806.87C2322.37 1839.44 2264.38 1888.68 2204.81 1949.05C2154.77 1999.88 2093.61 2069.78 2069.78 2104.73C2045.95 2139.68 2006.24 2211.17 1981.62 2263.59C1956.99 2316.01 1923.63 2400.21 1907.75 2450.25C1891.86 2500.29 1860.88 2625.78 1839.44 2728.25C1817.99 2830.71 1787.81 2963.36 1747.3 3129.36L1513.78 3133.33L1518.55 3080.12C1520.93 3049.93 1532.84 2974.48 1545.55 2910.93C1558.26 2847.39 1595.59 2695.68 1628.95 2573.36C1661.52 2451.04 1726.65 2200.84 1772.72 2017.36C1818.79 1833.88 1855.32 1682.96 1853.74 1681.38C1852.94 1679.79 1772.72 1734.59 1676.61 1802.11C1580.5 1869.62 1493.92 1926.81 1483.6 1929.19C1474.07 1932.37 1460.56 1929.19 1454.21 1924.43C1447.06 1918.87 1441.5 1902.19 1441.5 1886.3C1441.5 1871.21 1447.85 1850.56 1455.8 1841.82C1463.74 1832.29 1591.62 1748.1 1740.15 1655.16Z" fill="white"/>
</svg>
